<?xml version="1.0" standalone="no"?>
<!DOCTYPE svg PUBLIC "-//W3C//DTD SVG 20010904//EN"
 "http://www.w3.org/TR/2001/REC-SVG-20010904/DTD/svg10.dtd">
<svg version="1.0" xmlns="http://www.w3.org/2000/svg"
 width="100%" height="100%" viewBox="0 0 492.000000 490.000000"
 preserveAspectRatio="xMidYMid meet">
<metadata>
Created by potrace 1.16, written by Peter Selinger 2001-2019
</metadata>
<g transform="translate(0.000000,490.000000) scale(0.100000,-0.100000)"
fill="#000000" stroke="none">
<path d="M2370 4893 c-1000 -45 -1866 -673 -2214 -1610 -154 -412 -187 -875
-96 -1325 91 -447 354 -917 696 -1248 759 -733 1870 -909 2796 -444 994 499
1529 1595 1306 2674 -241 1169 -1307 2005 -2488 1953z m50 -130 c-1 -5 -31
-30 -67 -57 -66 -49 -66 -49 -112 -31 -25 9 -74 26 -109 37 -35 11 -60 23 -57
26 14 14 345 38 345 25z m415 -18 c982 -152 1757 -927 1932 -1930 25 -144 25
-557 0 -705 -172 -1019 -919 -1773 -1932 -1950 -130 -23 -428 -38 -509 -26
-49 8 -49 8 5 38 360 204 653 689 783 1299 105 487 113 1206 20 1719 -109 602
-386 1132 -719 1378 -38 28 -79 58 -90 66 -20 15 -20 15 0 29 11 9 47 36 80
62 60 46 60 46 195 41 74 -3 180 -13 235 -21z m-1000 -119 c-353 -170 -336
-163 -415 -170 -75 -7 -75 -7 -40 24 109 93 378 196 520 198 45 1 45 1 -65
-52z m284 10 c35 -11 63 -25 62 -31 -1 -5 -84 -54 -185 -107 -184 -96 -184
-96 -243 -81 -32 9 -94 21 -138 28 -80 12 -80 12 90 94 94 45 193 93 220 106
57 28 89 26 194 -9z m237 -120 c82 -61 204 -175 204 -189 -1 -13 -356 -188
-381 -187 -9 0 -19 6 -22 14 -9 24 -182 163 -247 198 -73 40 -72 38 -7 71 28
15 113 60 187 100 155 84 145 84 266 -7z m-1080 -75 c-16 -17 -56 -35 -56 -25
0 4 62 44 69 44 2 0 -4 -9 -13 -19z m345 -73 c38 -6 68 -15 67 -19 -2 -4 -75
-43 -163 -87 -140 -69 -164 -78 -190 -70 -38 12 -222 14 -254 4 -76 -26 105
83 241 145 32 14 61 29 65 32 10 11 158 8 234 -5z m-386 -49 c-55 -28 -139
-73 -186 -100 -103 -60 -240 -126 -219 -106 104 98 262 188 410 233 107 32
107 30 -5 -27z m599 -19 c112 -54 278 -183 260 -200 -5 -4 -61 -29 -124 -55
-63 -26 -137 -58 -164 -72 -49 -25 -49 -25 -85 10 -89 85 -191 151 -281 182
-35 12 -35 12 30 45 64 33 271 129 279 130 3 0 41 -18 85 -40z m827 -100 c54
-74 134 -211 177 -301 1 -3 -14 -13 -35 -21 -21 -9 -109 -45 -196 -82 -87 -36
-159 -66 -161 -66 -2 0 -11 18 -20 40 -23 58 -121 213 -177 280 -50 60 -59 80
-36 80 6 0 89 38 182 84 94 47 176 84 184 83 8 -1 45 -45 82 -97z m-1431 -77
c-1 -12 -430 -220 -470 -228 -19 -4 -60 -18 -90 -31 l-55 -24 54 51 c61 57
175 140 235 171 83 43 327 88 326 61z m173 -25 c116 -48 279 -160 260 -179 -4
-4 -73 -35 -153 -68 -80 -33 -165 -68 -189 -79 -45 -20 -45 -20 -85 14 -61 53
-172 104 -252 116 -38 6 -76 13 -84 15 -23 8 379 203 418 203 18 0 57 -10 85
-22z m793 -100 c54 -67 190 -287 182 -293 -2 -1 -79 -28 -173 -60 -93 -32
-175 -60 -181 -62 -6 -2 -31 31 -54 74 -53 96 -112 184 -158 235 -22 24 -32
42 -26 48 16 16 318 140 334 137 8 -1 42 -37 76 -79z m-445 -145 c56 -64 198
-288 187 -298 -2 -2 -37 -13 -78 -25 -41 -12 -129 -39 -195 -60 -188 -61 -162
-67 -223 52 -28 57 -73 127 -98 156 -26 29 -43 56 -40 59 9 10 378 162 393
163 6 0 30 -21 54 -47z m1133 -49 c61 -146 148 -434 168 -558 3 -18 -16 -23
-192 -57 -255 -50 -236 -51 -250 19 -28 137 -79 317 -124 436 -14 38 -25 70
-24 71 2 1 71 30 153 65 83 34 166 71 185 81 48 25 51 22 84 -57z m-1792 -16
c243 -116 371 -381 450 -933 17 -121 17 -705 0 -835 -71 -531 -194 -792 -432
-919 -412 -220 -819 206 -955 999 -115 668 137 1488 515 1680 128 65 296 68
422 8z m1338 -195 c34 -94 126 -450 118 -459 -5 -5 -363 -74 -384 -74 -6 0
-23 59 -38 132 -15 73 -45 184 -66 247 -21 64 -37 117 -36 118 8 8 335 121
353 122 18 1 26 -12 53 -86z m-457 -124 c45 -135 111 -408 101 -418 -6 -6
-466 -92 -470 -88 -2 2 -15 64 -28 138 -14 74 -36 171 -49 215 l-23 81 140 43
c345 106 305 102 329 29z m1091 -286 c18 -61 51 -360 62 -555 l7 -128 -220 0
c-252 0 -233 -11 -233 134 0 81 -24 330 -40 419 -6 32 -8 62 -5 66 6 6 372 78
407 80 9 1 19 -7 22 -16z m-495 -148 c20 -114 41 -337 41 -437 l0 -98 -205 0
-205 0 0 83 c0 75 -21 314 -36 413 -6 40 -6 40 187 75 107 20 197 34 200 32 4
-2 12 -32 18 -68z m-485 -23 c10 -17 35 -240 42 -375 l7 -137 -245 0 -246 0
-7 113 c-3 61 -11 150 -16 197 -15 140 -29 123 134 154 312 59 323 61 331 48z
m46 -689 c0 -110 -17 -403 -24 -411 -2 -1 -41 4 -87 12 -46 9 -145 24 -219 36
-196 29 -193 28 -186 53 3 12 11 115 17 229 l12 208 244 0 243 0 0 -127z m482
-18 c-5 -271 -24 -476 -45 -474 -7 0 -95 15 -197 32 -185 32 -185 32 -183 77
0 25 4 144 8 265 4 121 8 226 11 233 3 10 49 12 206 10 l202 -3 -2 -140z m511
-45 c-1 -173 -25 -496 -38 -508 -7 -7 -417 57 -427 67 -4 3 0 74 7 156 8 83
15 220 15 306 0 86 3 159 7 163 4 3 104 5 222 4 l216 -3 -2 -185z m-1292 -330
c291 -47 264 -36 262 -102 -4 -84 -38 -238 -85 -386 -41 -129 -43 -134 -68
-129 -38 6 -424 128 -433 136 -4 4 2 33 13 65 20 60 64 266 75 351 10 80 15
95 30 95 8 0 100 -14 206 -30z m546 -91 c103 -17 191 -34 195 -37 14 -14 -62
-372 -110 -514 -41 -125 -49 -143 -67 -140 -35 6 -345 124 -351 133 -3 5 8 51
25 102 40 123 65 222 85 342 22 129 25 145 31 145 2 0 89 -14 192 -31z m496
-83 c109 -19 201 -37 204 -40 36 -35 -171 -786 -216 -786 -9 0 -381 180 -381
184 0 1 14 40 31 87 39 106 92 313 114 444 23 142 24 145 38 145 6 0 101 -15
210 -34z m-1005 -445 c49 -15 72 -27 72 -37 0 -40 -178 -296 -216 -311 -13 -5
-139 46 -347 141 l-78 36 49 59 c27 32 68 96 92 142 l43 85 156 -47 c86 -26
189 -57 229 -68z m354 -125 c97 -35 168 -66 168 -74 0 -18 -77 -169 -119 -231
-20 -30 -44 -66 -53 -80 -10 -14 -21 -26 -25 -26 -5 0 -7 -3 -6 -6 7 -20 -79
6 -197 60 -74 34 -150 69 -169 77 -34 14 -34 14 -4 47 47 48 141 184 175 250
23 46 33 57 46 52 9 -4 92 -35 184 -69z m-714 -168 c183 -82 183 -82 160 -104
-63 -62 -245 -145 -357 -163 -70 -11 -55 -17 -229 88 -53 32 -121 71 -149 87
-64 35 -66 44 -10 44 90 0 227 52 310 118 45 36 19 43 275 -70z m1160 -18
c100 -49 182 -94 182 -100 0 -39 -214 -380 -238 -380 -11 0 -275 141 -350 187
-23 14 -23 14 6 51 40 51 153 238 176 290 11 23 24 42 30 42 6 0 93 -40 194
-90z m-1900 -13 c41 -13 387 -209 412 -235 12 -12 -97 10 -168 33 -111 37
-213 99 -300 183 -71 67 -74 71 -37 53 22 -10 64 -26 93 -34z m1132 -142 c52
-24 125 -57 163 -74 79 -35 80 -38 22 -86 -110 -90 -182 -119 -221 -90 -22 16
-34 19 -34 7 0 -5 16 -16 36 -26 45 -21 37 -32 -35 -51 -117 -31 -173 -30
-227 3 -27 16 -95 55 -151 86 -57 32 -103 60 -103 64 0 5 26 13 57 20 77 16
224 91 298 151 69 57 60 57 195 -4z m-830 -195 c36 -26 76 -52 88 -59 13 -7
22 -15 19 -17 -13 -13 -283 150 -317 191 -19 23 135 -61 210 -115z m1040 18
c-40 -35 -180 -116 -180 -104 0 3 30 23 68 45 37 23 84 57 106 76 21 20 41 33
45 30 3 -4 -14 -25 -39 -47z m59 15 c-8 -10 -21 -23 -29 -30 -8 -6 -12 -15 -7
-19 4 -4 24 9 45 29 37 37 37 37 217 -58 99 -52 183 -95 188 -95 31 0 -84
-129 -169 -188 -31 -21 -31 -21 -65 2 -19 13 -83 51 -144 86 -137 78 -149 88
-133 108 11 13 8 14 -19 8 -30 -7 -73 6 -73 22 0 4 35 31 79 60 43 29 86 61
96 72 22 25 32 26 14 3z m-959 -12 c101 -6 109 -8 175 -47 39 -23 104 -60 145
-83 l75 -42 -110 6 c-148 8 -223 25 -276 64 -24 17 -70 49 -101 71 -62 43 -72
56 -36 44 12 -4 70 -9 128 -13z m939 -256 c112 -63 207 -117 210 -121 11 -11
-157 -114 -188 -114 -5 0 -32 23 -58 51 -26 28 -65 61 -88 73 -190 107 -285
162 -285 166 0 7 159 57 185 59 11 0 112 -51 224 -114z m-839 55 c41 -27 71
-50 67 -50 -11 0 -177 90 -177 96 0 16 46 -3 110 -46z m105 5 c44 -8 120 -14
168 -15 123 0 290 -73 215 -94 -83 -22 -174 -18 -264 10 -73 24 -204 94 -204
110 0 5 -9 6 85 -11z m673 -242 c58 -58 55 -67 -15 -59 -107 12 -218 47 -322
99 -104 52 -104 52 -50 60 30 5 79 14 109 21 55 12 55 12 145 -33 50 -25 109
-64 133 -88z m-489 90 c39 -20 69 -38 66 -41 -6 -7 -136 47 -155 65 -28 26 15
14 89 -24z"/>
<path d="M1696 691 c-4 -5 -2 -12 3 -15 5 -4 12 -2 15 3 4 5 2 12 -3 15 -5 4
-12 2 -15 -3z"/>
</g>
</svg>
