<?xml version="1.0" standalone="no"?>
<!DOCTYPE svg PUBLIC "-//W3C//DTD SVG 20010904//EN"
 "http://www.w3.org/TR/2001/REC-SVG-20010904/DTD/svg10.dtd">
<svg version="1.0" xmlns="http://www.w3.org/2000/svg"
 width="100%" height="100%" viewBox="0 0 777.000000 490.000000"
 preserveAspectRatio="xMidYMid meet">
<metadata>
Created by potrace 1.16, written by Peter Selinger 2001-2019
</metadata>
<g transform="translate(0.000000,490.000000) scale(0.100000,-0.100000)"
fill="#1758F5" stroke="none">
<path d="M3665 4875 c-948 -133 -1707 -755 -2019 -1653 -45 -131 -47 -123 24
-120 61 3 61 3 89 83 138 392 323 598 580 645 292 53 588 -243 653 -654 13
-76 13 -76 49 -76 37 0 37 0 32 43 -6 42 -45 208 -58 238 -5 12 6 19 47 32 29
8 128 38 221 67 92 28 172 48 177 45 14 -8 76 -212 99 -324 23 -107 18 -99 60
-107 33 -7 33 -7 26 47 -11 81 -61 271 -91 345 -14 36 -24 67 -22 69 6 6 345
125 357 125 33 0 155 -395 173 -560 3 -21 9 -25 41 -28 20 -2 37 -1 37 2 0 48
-64 308 -106 431 -30 88 -57 167 -59 175 -5 13 325 166 373 173 44 6 231 -606
232 -755 0 -25 3 -28 36 -28 37 0 37 0 31 60 -57 546 -392 1187 -746 1430 -44
30 -80 58 -81 62 0 3 35 34 78 68 77 61 77 61 212 56 910 -36 1767 -683 2066
-1558 36 -108 36 -108 95 -108 70 0 68 -8 23 127 -284 841 -1023 1475 -1904
1633 -161 29 -566 37 -725 15z m204 -161 c-41 -31 -81 -53 -89 -50 -164 54
-201 71 -174 78 34 8 206 25 283 27 55 1 55 1 -20 -55z m-424 -44 c-3 -5 -11
-10 -18 -10 -6 0 -104 -45 -217 -99 -184 -89 -213 -100 -277 -106 -40 -3 -73
-4 -73 -1 0 24 227 144 353 185 104 35 246 54 232 31z m102 -10 c57 -13 153
-50 153 -58 0 -4 -10 -12 -23 -18 -12 -5 -99 -50 -194 -98 -172 -87 -172 -87
-236 -67 -36 11 -93 23 -126 27 -67 7 -75 14 -33 31 15 6 110 52 212 101 205
100 189 95 247 82z m245 -98 c94 -54 294 -232 277 -246 -31 -25 -374 -177
-384 -170 -7 5 -51 42 -99 82 -47 41 -119 93 -161 117 -42 24 -73 45 -68 48 4
2 62 33 128 67 66 35 147 78 180 97 72 40 69 39 127 5z m-1005 -118 c-21 -14
-41 -24 -43 -21 -6 5 57 47 71 47 5 0 -8 -12 -28 -26z m350 -75 c35 -6 63 -14
63 -18 0 -3 -71 -42 -157 -85 -158 -78 -158 -78 -238 -67 -51 6 -106 6 -150 1
-38 -5 -74 -9 -80 -9 -19 -1 91 64 215 126 139 69 198 78 347 52z m-302 -7
c-6 -5 -30 -17 -55 -27 -25 -11 -101 -52 -170 -91 -69 -39 -159 -88 -200 -108
l-75 -37 65 61 c77 71 178 126 321 175 107 36 130 41 114 27z m500 -55 c70
-34 209 -133 254 -181 24 -25 24 -25 0 -36 -301 -134 -322 -139 -371 -94 -60
56 -174 130 -246 159 -57 23 -57 23 108 103 195 95 169 90 255 49z m811 -74
c48 -63 150 -227 188 -300 16 -32 16 -32 -21 -52 -33 -16 -300 -128 -344 -143
-12 -5 -24 11 -48 60 -42 85 -129 218 -177 271 -20 23 -34 44 -31 47 7 7 369
184 376 184 4 0 29 -30 57 -67z m-1396 -107 c0 -10 -427 -217 -469 -228 -25
-6 -66 -20 -91 -32 -25 -11 -49 -22 -55 -24 -5 -3 10 17 35 42 105 109 302
216 440 239 36 6 140 8 140 3z m166 -28 c86 -31 263 -148 264 -173 0 -6 -28
-21 -62 -34 -35 -13 -123 -50 -197 -82 -134 -58 -134 -58 -175 -23 -76 65
-193 111 -326 127 -18 2 30 31 185 109 226 114 215 112 311 76z m758 -60 c81
-94 223 -323 207 -333 -12 -7 -352 -125 -361 -125 -4 0 -15 19 -24 43 -20 54
-121 211 -171 266 -21 23 -35 45 -31 49 10 9 318 140 333 141 6 1 28 -18 47
-41z m-406 -194 c56 -62 185 -275 174 -285 -7 -8 -434 -140 -438 -136 -1 1
-25 47 -53 102 -27 55 -71 124 -97 153 -25 29 -44 55 -42 57 8 8 383 164 395
165 6 0 34 -25 61 -56z"/>
<path d="M587 3093 c-4 -3 -7 -189 -7 -412 0 -413 -4 -465 -37 -510 -38 -50
-70 -66 -136 -66 -113 0 -169 45 -190 153 -12 62 -12 62 -111 62 -99 0 -99 0
-93 -72 19 -221 208 -356 449 -318 136 21 222 76 275 177 50 94 53 129 53 578
l0 415 -98 0 c-54 0 -102 -3 -105 -7z"/>
<path d="M3350 2995 l0 -105 99 0 c100 0 100 0 103 98 2 53 2 100 0 105 -2 4
-48 7 -103 7 l-99 0 0 -105z"/>
<path d="M4921 3074 c-238 -64 -373 -270 -373 -569 1 -364 190 -575 517 -575
248 0 413 119 470 337 24 90 23 93 -34 93 -49 0 -49 0 -55 -43 -55 -365 -592
-417 -746 -72 -137 306 -26 657 233 736 211 65 423 -22 488 -202 22 -59 22
-59 72 -59 49 0 49 0 44 28 -33 162 -155 288 -318 327 -80 18 -227 18 -298 -1z"/>
<path d="M1208 2794 c-135 -32 -206 -103 -233 -231 -7 -33 -7 -33 98 -33 105
0 105 0 111 31 15 76 105 114 216 91 66 -14 96 -44 105 -106 14 -88 36 -78
-235 -105 -120 -12 -192 -31 -241 -64 -109 -74 -134 -264 -46 -363 57 -66 96
-79 237 -79 141 0 190 13 266 71 44 34 44 34 44 -11 0 -45 0 -45 88 -45 l87 0
-3 302 c-3 357 -4 372 -42 431 -66 105 -272 155 -452 111z m302 -524 c0 -123
-92 -200 -237 -200 -101 0 -153 47 -140 126 14 82 77 105 365 133 8 1 12 -17
12 -59z"/>
<path d="M3922 2795 c-81 -18 -146 -56 -177 -103 -61 -93 -52 -233 18 -299 61
-58 94 -69 351 -118 97 -18 126 -40 126 -97 0 -145 -317 -144 -346 1 -6 31 -6
31 -107 31 -100 0 -100 0 -93 -42 28 -171 206 -266 450 -239 196 22 297 111
298 260 1 156 -72 215 -325 261 -192 35 -217 48 -217 113 0 72 50 101 159 95
105 -6 126 -21 155 -111 5 -16 17 -17 103 -15 113 3 117 11 66 117 -60 124
-268 190 -461 146z"/>
<path d="M1956 2718 l-86 -71 0 -349 1 -348 99 0 100 0 0 330 0 330 73 2 c39
1 107 0 150 -1 77 -3 77 -3 77 88 l0 91 -163 0 c-164 0 -164 0 -251 -72z"/>
<path d="M2407 2783 c-4 -7 113 -335 250 -698 l49 -130 119 -3 120 -2 77 207
c43 115 111 299 153 410 41 112 75 207 75 213 0 7 -36 10 -102 8 l-102 -3
-105 -322 c-59 -177 -108 -322 -111 -323 -3 0 -49 132 -104 293 -136 404 -107
357 -220 357 -52 0 -97 -3 -99 -7z"/>
<path d="M3357 2783 c-7 -7 -10 -827 -3 -834 2 -2 47 -3 100 -1 l96 3 0 420 0
419 -93 0 c-52 0 -97 -3 -100 -7z"/>
<path d="M5976 2779 c-235 -34 -367 -286 -296 -565 48 -186 170 -279 370 -279
227 0 366 135 386 375 17 201 -67 377 -209 440 -37 17 -156 42 -182 39 -5 -1
-37 -5 -69 -10z m211 -105 c102 -49 144 -128 151 -282 11 -246 -89 -377 -288
-377 -165 0 -258 88 -290 273 -50 299 178 506 427 386z"/>
<path d="M7256 2760 c-290 -113 -334 -608 -69 -774 190 -119 458 -52 543 135
31 70 28 79 -30 79 -38 0 -50 -4 -50 -15 0 -55 -69 -132 -144 -160 -188 -72
-396 76 -396 281 0 34 0 34 326 34 l327 0 -6 78 c-12 180 -97 307 -233 348
-69 20 -208 18 -268 -6z m263 -80 c75 -38 131 -122 145 -217 6 -43 6 -43 -274
-43 -318 0 -296 -7 -264 87 57 168 243 250 393 173z"/>
<path d="M6618 2763 c-28 -4 -28 -4 -28 -408 0 -403 0 -403 41 -407 22 -2 42
-2 45 1 2 2 4 135 4 295 0 284 1 292 24 341 38 82 51 89 179 95 112 5 112 5
115 49 3 44 3 44 -96 39 -113 -5 -179 -30 -203 -75 -14 -26 -14 -26 -19 23 -5
51 -10 55 -62 47z"/>
<path d="M1634 1729 c3 -18 27 -85 52 -148 504 -1271 1933 -1899 3187 -1400
667 266 1180 804 1413 1483 33 97 34 96 -35 96 -58 0 -58 0 -91 -92 -317 -910
-1207 -1538 -2178 -1538 -201 0 -208 3 -122 54 327 194 602 628 739 1172 29
113 73 373 67 390 -5 12 -66 21 -66 9 0 -128 -95 -510 -182 -732 -46 -117 -42
-113 -103 -72 -25 17 -106 59 -181 94 -74 35 -137 65 -140 67 -2 2 12 48 31
101 50 140 125 462 125 537 0 4 -15 8 -34 8 -35 0 -35 0 -46 -72 -30 -182
-120 -508 -149 -539 -6 -6 -133 38 -353 122 -26 10 -26 10 12 118 34 97 73
259 82 338 3 28 0 30 -33 33 -36 3 -36 3 -53 -100 -19 -116 -92 -348 -110
-348 -14 0 -354 104 -414 127 -36 14 -42 20 -37 37 26 93 65 251 65 267 0 17
-6 20 -37 17 -37 -3 -38 -4 -46 -53 -45 -276 -198 -515 -389 -609 -320 -157
-659 78 -827 574 -29 85 -29 85 -91 88 -63 3 -63 3 -56 -29z m1636 -385 c206
-62 195 -55 169 -107 -54 -106 -187 -277 -215 -277 -13 0 -317 131 -387 166
-27 15 -27 15 24 76 28 33 69 98 91 143 41 82 41 82 102 64 34 -11 131 -40
216 -65z m512 -179 c147 -55 142 -37 56 -190 -77 -134 -139 -219 -149 -203 -7
11 -11 11 -18 -1 -7 -12 -33 -3 -138 44 -70 32 -152 69 -181 82 -54 24 -54 24
-15 66 55 60 126 162 162 234 35 70 -2 75 283 -32z m-777 -142 c220 -97 204
-87 174 -113 -86 -73 -262 -148 -369 -157 -65 -6 -65 -6 -235 96 -201 121
-201 121 -150 121 95 1 230 50 320 118 22 17 46 27 55 24 8 -3 100 -43 205
-89z m1148 -11 c229 -111 220 -100 166 -202 -50 -95 -166 -268 -189 -283 -13
-8 -349 159 -378 187 -2 3 9 22 25 43 48 60 121 178 161 259 20 41 40 74 45
74 5 0 82 -35 170 -78z m-1888 -18 c33 -10 122 -57 200 -105 77 -47 160 -97
185 -110 116 -60 -99 -15 -224 47 -80 40 -146 86 -223 153 -58 51 -68 69 -25
47 15 -7 54 -22 87 -32z m1209 -180 c87 -40 161 -75 164 -78 11 -12 -67 -75
-181 -145 -37 -23 -37 -23 -73 -2 -39 23 -44 25 -44 13 0 -5 16 -16 35 -25 49
-23 44 -32 -27 -50 -158 -39 -166 -38 -329 55 -80 46 -147 87 -150 92 -2 5 20
15 49 22 107 28 274 117 332 179 29 31 21 33 224 -61z m-891 -169 c54 -37 97
-69 94 -71 -11 -11 -266 144 -297 181 -24 29 93 -35 203 -110z m1041 27 c-48
-45 -170 -119 -180 -109 -3 2 26 23 63 45 37 22 86 56 108 76 60 53 68 43 9
-12z m46 -7 c-13 -14 -21 -27 -18 -30 2 -3 17 9 33 25 38 40 32 41 213 -52
235 -123 222 -102 126 -196 -125 -122 -119 -120 -195 -74 -35 22 -111 67 -168
102 -81 49 -100 65 -87 72 9 5 16 14 16 20 0 6 -9 4 -23 -5 -20 -13 -26 -13
-56 2 -36 19 -36 20 39 64 25 14 65 44 90 65 49 43 68 47 30 7z m-945 10 c80
-2 80 -2 233 -84 83 -46 152 -85 152 -88 0 -10 -212 8 -284 23 -46 10 -79 23
-100 42 -17 15 -62 47 -99 71 -79 51 -81 55 -24 46 23 -4 78 -9 122 -10z m781
-173 c114 -63 321 -184 345 -203 23 -17 23 -17 -24 -47 -26 -16 -72 -40 -102
-52 -55 -22 -55 -22 -77 6 -48 63 -92 94 -247 173 -89 45 -161 84 -161 86 0 2
30 13 68 25 52 16 117 41 128 49 1 1 32 -16 70 -37z m-688 -33 c46 -28 81 -54
78 -56 -6 -6 -173 84 -181 97 -14 23 25 7 103 -41z m157 0 c33 -5 93 -9 133
-9 90 0 264 -76 209 -91 -132 -36 -306 -6 -419 74 -68 47 -70 52 -20 42 20 -4
64 -11 97 -16z m143 -150 c45 -23 81 -44 78 -47 -8 -7 -163 58 -177 74 -21 25
11 16 99 -27z m355 0 c84 -42 187 -133 169 -151 -23 -23 -268 44 -397 110
l-90 46 85 12 c47 6 94 14 105 17 37 9 45 7 128 -34z"/>
<path d="M3202 689 c2 -7 10 -15 17 -17 8 -3 12 1 9 9 -2 7 -10 15 -17 17 -8
3 -12 -1 -9 -9z"/>
</g>
</svg>
