<?xml version="1.0" standalone="no"?>
<!DOCTYPE svg PUBLIC "-//W3C//DTD SVG 20010904//EN"
 "http://www.w3.org/TR/2001/REC-SVG-20010904/DTD/svg10.dtd">
<svg version="1.0" xmlns="http://www.w3.org/2000/svg"
 width="100%" height="100%" viewBox="0 0 776.000000 118.000000"
 preserveAspectRatio="xMidYMid meet">
<metadata>
Created by potrace 1.16, written by Peter Selinger 2001-2019
</metadata>
<g transform="translate(0.000000,118.000000) scale(0.100000,-0.100000)"
fill="#ffffff" stroke="none">
<path d="M568 743 c-3 -420 -4 -440 -24 -477 -39 -76 -159 -105 -248 -61 -53
27 -74 58 -88 133 -12 62 -12 62 -111 62 -100 0 -100 0 -94 -63 21 -219 167
-336 405 -325 151 7 248 58 311 163 56 93 61 133 61 593 l0 412 -105 0 -104 0
-3 -437z"/>
<path d="M3342 1078 c3 -103 3 -103 96 -103 110 0 107 -3 107 112 0 88 0 88
-103 91 l-103 3 3 -103z"/>
<path d="M4890 1147 c-228 -77 -350 -268 -352 -547 -2 -388 204 -607 551 -587
249 14 406 150 446 386 7 42 7 42 -41 39 -47 -3 -47 -3 -64 -63 -56 -202 -222
-308 -431 -276 -238 37 -358 203 -359 495 0 323 174 505 463 483 167 -12 269
-90 317 -240 12 -38 12 -38 58 -35 43 3 47 5 45 28 -10 97 -104 230 -200 283
-114 61 -308 77 -433 34z"/>
<path d="M1202 875 c-133 -30 -212 -108 -235 -232 -6 -33 -6 -33 97 -33 104 0
104 0 110 34 13 69 110 111 212 92 84 -16 102 -38 111 -131 6 -71 36 -61 -238
-84 -182 -16 -266 -58 -315 -157 -57 -117 -16 -255 96 -318 110 -62 350 -37
441 46 32 29 36 26 41 -27 3 -30 3 -30 86 -30 l83 0 2 320 c2 403 -12 445
-174 506 -70 27 -231 34 -317 14z m298 -527 c0 -120 -93 -198 -237 -198 -103
0 -153 45 -140 127 13 77 54 97 238 117 68 8 127 14 132 15 4 0 7 -27 7 -61z"/>
<path d="M3923 880 c-151 -32 -223 -115 -223 -256 1 -149 83 -213 320 -249
172 -26 210 -46 210 -113 0 -76 -47 -106 -165 -106 -110 0 -185 47 -185 115 0
20 -39 29 -126 29 -64 0 -64 0 -64 -42 1 -162 154 -256 400 -246 237 10 368
120 344 288 -20 139 -97 193 -330 230 -185 30 -214 45 -214 115 0 66 32 89
129 93 105 5 143 -11 173 -75 23 -48 23 -48 116 -51 92 -3 92 -3 92 31 0 88
-89 191 -193 222 -62 19 -225 28 -284 15z"/>
<path d="M1952 798 c-92 -72 -92 -72 -92 -247 0 -97 3 -254 7 -348 l6 -173 93
0 94 0 2 333 3 332 148 3 147 3 0 84 0 85 -158 0 c-158 0 -158 0 -250 -72z"/>
<path d="M2400 852 c0 -10 34 -110 76 -222 41 -113 108 -294 147 -403 l72
-197 118 2 c118 3 118 3 168 127 27 69 67 175 88 235 22 61 69 190 105 285 36
96 66 179 66 183 0 4 -44 8 -99 8 l-98 0 -111 -330 c-61 -182 -112 -327 -115
-323 -2 4 -49 139 -102 298 -136 401 -107 355 -220 355 -84 0 -95 -2 -95 -18z"/>
<path d="M3342 453 l3 -418 98 -3 97 -3 0 421 0 420 -100 0 -100 0 2 -417z"/>
<path d="M5906 844 c-212 -67 -312 -349 -216 -607 91 -243 449 -307 629 -112
184 200 131 587 -96 700 -72 36 -233 46 -317 19z m272 -90 c132 -66 193 -267
138 -457 -71 -246 -411 -280 -528 -53 -67 132 -51 347 33 450 73 87 244 116
357 60z"/>
<path d="M7250 844 c-260 -90 -333 -513 -126 -732 159 -169 497 -122 592 83
36 76 33 95 -13 89 -57 -8 -60 -10 -67 -40 -32 -126 -230 -196 -371 -130 -90
42 -150 132 -161 245 l-7 61 328 0 328 0 -6 83 c-12 177 -97 302 -233 343 -62
19 -206 17 -264 -2z m271 -92 c41 -21 61 -40 85 -80 26 -44 61 -158 51 -169
-2 -1 -127 -4 -278 -5 -274 -3 -274 -3 -273 39 4 184 240 306 415 215z"/>
<path d="M6792 838 c-38 -7 -62 -19 -89 -44 -44 -42 -43 -42 -43 6 0 40 0 40
-40 40 -40 0 -40 0 -40 -405 0 -405 0 -405 44 -405 45 0 45 0 48 303 3 302 3
302 30 352 34 66 53 74 178 77 105 3 105 3 105 43 0 40 0 40 -70 42 -38 0 -94
-3 -123 -9z"/>
</g>
</svg>
